<svg preserveAspectRatio="none" overflow="visible" style="display: block;" width="64" height="15" viewBox="0 0 64 15" fill="none" xmlns="http://www.w3.org/2000/svg">
<path id="Vector" d="M60.7722 8.80106C59.3179 8.80106 58.0873 9.72414 57.6854 10.9934H48.6443C49.8791 9.82759 50.6497 8.20823 50.6497 6.41777C50.6497 2.98807 47.828 0.187006 44.302 0.0159185C44.1942 0.00398218 44.0824 0 43.9705 0C42.1846 0 40.7427 1.3886 40.7427 3.10345C40.7427 4.8183 42.1888 6.20292 43.9705 6.20292C45.7522 6.20292 47.1982 4.81433 47.1982 3.10345C47.1982 3.07958 47.1982 3.05172 47.1982 3.02785C48.1554 3.87135 48.7645 5.07693 48.7645 6.41777C48.7645 8.79311 46.8792 10.7546 44.4677 10.9934H0V12.8077H43.9705C43.9705 12.8077 44.3102 12.8196 44.4801 12.8077H57.6854C58.0914 14.0769 59.3179 15 60.7722 15C62.5581 15 64 13.6114 64 11.8966C64 10.1817 62.5539 8.79311 60.7722 8.79311V8.80106Z" fill="#323232" fill-opacity="0.5"/>
</svg>
